<svg xmlns="http://www.w3.org/2000/svg" xmlns:xlink="http://www.w3.org/1999/xlink" id="レイヤー_1" x="0" y="0" version="1.1" viewBox="0 0 492.8 108.9" style="enable-background:new 0 0 492.8 108.9" xml:space="preserve"><style type="text/css">.st0{fill:#2878e6}.st1{fill:#0a3296}</style><title>reactive_logo</title><g id="レイヤー_2"><g id="レイヤー_2-2"><path d="M71.6,38.5c9.1,0,16.5,7.4,16.5,16.5s-7.4,16.5-16.5,16.5S55.1,64.1,55.1,55S62.5,38.5,71.6,38.5 M71.6,35.8 C61,35.8,52.4,44.4,52.4,55S61,74.2,71.6,74.2S90.8,65.6,90.8,55S82.2,35.8,71.6,35.8C71.6,35.8,71.6,35.8,71.6,35.8z" class="st0"/><path d="M35.4,59c-2.3,8.9-11.3,14.2-20.1,12S1,59.7,3.2,50.8s11.3-14.2,20.1-12c5.9,1.5,10.5,6.1,12,12h2.8 c-2.3-10.4-12.5-17-22.9-14.8S-1.8,48.6,0.4,59S13,76,23.4,73.8c7.4-1.6,13.2-7.4,14.8-14.8H35.4z" class="st0"/><path d="M124.1,38.3c9.2,0,16.6,7.4,16.6,16.6s-7.4,16.6-16.6,16.6s-16.6-7.4-16.6-16.6 C107.6,45.8,115,38.3,124.1,38.3 M124.1,35.6c-10.7,0-19.3,8.6-19.3,19.3c0,10.7,8.6,19.3,19.3,19.3c10.7,0,19.3-8.6,19.3-19.3 C143.4,44.2,134.8,35.6,124.1,35.6C124.1,35.6,124.1,35.6,124.1,35.6z" class="st0"/><rect width="14.6" height="2.7" x="128.3" y="53.8" class="st0"/><rect width="38.7" height="2.7" x="161" y="35.6" class="st0"/><rect width="19.1" height="2.7" x="180.6" y="71.4" class="st0"/><rect width="19.7" height="2.7" x="160.9" y="53.7" class="st0"/><rect width="38.6" height="2.7" x="272.9" y="35.6" class="st0"/><rect width="2.7" height="19.2" x="290.8" y="55" class="st0"/><rect width="2.7" height="38.6" x="254.5" y="35.6" class="st0"/><polygon points="221.8 35.6 218.6 35.6 218.6 64.5 221.4 64.5 221.4 39.1 237 55.8 238.9 54" class="st0"/><polygon points="345.5 74.2 325.8 74.2 325.8 55 328.5 55 328.5 71.5 345.5 71.5" class="st1"/><polygon points="356.8 55 354.1 55 354.1 38.5 335.5 38.5 335.5 35.7 356.8 35.7" class="st1"/><path d="M464.4,50.9c1.4-7.2,6.7-12.5,12.9-12.5s11.4,5.3,12.9,12.5h2.8c-1.5-8.7-7.9-15.2-15.6-15.2 s-14.1,6.5-15.6,15.2H464.4z" class="st1"/><path d="M490,59.1c-1.5,7-6.7,12.2-12.8,12.2s-11.3-5.2-12.8-12.2h-2.8c1.6,8.6,8,15,15.6,15s14-6.4,15.6-15H490z" class="st1"/><rect width="2.7" height="6.7" x="476.8" y="52.3" class="st1" transform="matrix(0.4811 -0.8766 0.8766 0.4811 199.3078 448.0868)"/><path d="M387.7,72.4" class="st1"/><polygon points="435.3 54.9 449.1 35.7 418.2 35.7 418.2 42.8 421 42.8 421 38.4 443.8 38.4 432 54.9 444 71.4 421 71.4 421 66.9 418.2 66.9 418.2 74.1 449.3 74.1" class="st1"/><path d="M403.4,74.1h-35.1l17.6-38.4L403.4,74.1z M372.6,71.4h26.7l-13.3-29.2L372.6,71.4z" class="st1"/></g></g></svg>